<?xml version="1.0" encoding="utf-8"?>
<!-- Generator: Adobe Illustrator 27.5.0, SVG Export Plug-In . SVG Version: 6.00 Build 0)  -->
<svg version="1.1" xmlns="http://www.w3.org/2000/svg" xmlns:xlink="http://www.w3.org/1999/xlink" x="0px" y="0px"
	 viewBox="0 0 500 500" style="enable-background:new 0 0 500 500;" xml:space="preserve">
<g id="Background_Complete">
	<g>
		<rect y="382.398" style="fill:#EBEBEB;" width="500" height="0.25"/>
		<rect x="300.713" y="391.069" style="fill:#EBEBEB;" width="33.122" height="0.25"/>
		<rect x="395.196" y="399.152" style="fill:#EBEBEB;" width="8.693" height="0.25"/>
		<rect x="335.588" y="395.402" style="fill:#EBEBEB;" width="19.192" height="0.25"/>
		<rect x="52.459" y="390.888" style="fill:#EBEBEB;" width="43.193" height="0.25"/>
		<rect x="244.667" y="390.888" style="fill:#EBEBEB;" width="6.333" height="0.25"/>
		<rect x="141.693" y="395.236" style="fill:#EBEBEB;" width="45.306" height="0.25"/>
		<path style="fill:#EBEBEB;" d="M237.014,337.8H43.915c-3.147,0-5.708-2.561-5.708-5.708V60.66c0-3.147,2.561-5.708,5.708-5.708
			h193.099c3.146,0,5.707,2.561,5.707,5.708v271.432C242.721,335.239,240.16,337.8,237.014,337.8z M43.915,55.203
			c-3.01,0-5.458,2.448-5.458,5.458v271.432c0,3.01,2.448,5.458,5.458,5.458h193.099c3.009,0,5.457-2.448,5.457-5.458V60.66
			c0-3.009-2.448-5.458-5.457-5.458H43.915z"/>
		<path style="fill:#EBEBEB;" d="M453.31,337.8H260.212c-3.147,0-5.707-2.561-5.707-5.708V60.66c0-3.147,2.561-5.708,5.707-5.708
			H453.31c3.148,0,5.708,2.561,5.708,5.708v271.432C459.019,335.239,456.458,337.8,453.31,337.8z M260.212,55.203
			c-3.009,0-5.457,2.448-5.457,5.458v271.432c0,3.01,2.448,5.458,5.457,5.458H453.31c3.01,0,5.458-2.448,5.458-5.458V60.66
			c0-3.009-2.448-5.458-5.458-5.458H260.212z"/>
	</g>
	<g>
		<g>
			<circle style="fill:#E6E6E6;" cx="99.931" cy="108.834" r="35.375"/>
			<g>
				<path style="fill:#FAFAFA;" d="M121.207,106.444h-0.289c1.581,0,2.917-1.175,3.118-2.743l0,0
					c0.241-1.879-1.223-3.543-3.118-3.543h-1.603l-10.594-0.981c-1.236-0.114-2.126-1.23-1.972-2.462
					c0.168-1.351,0.323-2.938,0.368-4.449c0.111-3.715-2.345-8.296-5.767-6.654c-1.386,0.665-0.554,5.275-1.22,7.101
					c-0.665,1.825-7.027,7.21-8.818,11.025l0,0c-1.085,0.456-1.791,1.518-1.791,2.695v13.731c0,0.775,0.308,1.519,0.856,2.067
					l1.481,1.481c1.019,1.019,2.402,1.592,3.843,1.592h13.941h5.901h1.905c1.581,0,2.916-1.175,3.118-2.743l0,0
					c0.241-1.879-1.223-3.543-3.118-3.543h2.322c1.581,0,2.917-1.175,3.118-2.743l0,0c0.241-1.879-1.223-3.543-3.118-3.543h1.435
					c1.581,0,2.917-1.175,3.118-2.743l0,0C124.565,108.108,123.101,106.444,121.207,106.444z"/>
				<path style="fill:#F0F0F0;" d="M85.635,125.566H77.37c-1.026,0-1.857-0.832-1.857-1.857v-19.829
					c0-1.026,0.832-1.857,1.857-1.857h8.266c1.026,0,1.857,0.832,1.857,1.857v19.829C87.493,124.734,86.661,125.566,85.635,125.566z
					"/>
			</g>
		</g>
		<path style="fill:#F0F0F0;" d="M347.416,96.644c-0.067-7.99-6.562-14.447-14.568-14.447c-1.929,0-3.769,0.378-5.454,1.059
			c-2.861-5.853-8.872-9.886-15.826-9.886c-8.41,0-15.438,5.898-17.186,13.782c-7.909,0.509-14.168,7.081-14.168,15.119
			c0,8.37,6.785,15.154,15.154,15.154h48.222c5.933,0,10.742-4.81,10.742-10.742C354.333,102.098,351.46,98.186,347.416,96.644z"/>
		<path style="fill:#F5F5F5;" d="M376.671,310.947c-0.041-4.885-4.012-8.832-8.906-8.832c-1.179,0-2.304,0.231-3.334,0.647
			c-1.749-3.578-5.424-6.044-9.675-6.044c-5.141,0-9.438,3.605-10.506,8.425c-4.835,0.311-8.661,4.329-8.661,9.243
			c0,5.117,4.148,9.265,9.264,9.265h29.48c3.627,0,6.567-2.94,6.567-6.567C380.899,314.281,379.143,311.889,376.671,310.947z"/>
		<g>
			<circle style="fill:#E6E6E6;" cx="420.391" cy="279.959" r="27.344"/>
			<path style="fill:#FAFAFA;" d="M433.695,270.267c-3.674-3.674-9.63-3.674-13.304,0c-3.674-3.674-9.63-3.674-13.304,0
				c-3.674,3.674-3.674,9.63,0,13.304l13.304,13.304l13.304-13.304C437.369,279.897,437.369,273.941,433.695,270.267z"/>
		</g>
		<path style="fill:#F5F5F5;" d="M172.13,53.266c0.041-4.897,4.022-8.855,8.929-8.855c1.182,0,2.31,0.232,3.343,0.649
			c1.754-3.588,5.438-6.06,9.701-6.06c5.155,0,9.463,3.615,10.534,8.447c4.848,0.312,8.684,4.34,8.684,9.267
			c0,5.13-4.159,9.289-9.289,9.289h-29.557c-3.637,0-6.585-2.948-6.585-6.585C167.891,56.608,169.652,54.211,172.13,53.266z"/>
		<g>
			<path style="fill:#F5F5F5;" d="M46.348,350.914v-21.64c0-2.774,2.27-5.044,5.044-5.044H96.72c2.774,0,5.044,2.27,5.044,5.044
				v21.64c0,2.774-2.27,5.044-5.044,5.044H51.392C48.618,355.957,46.348,353.688,46.348,350.914z"/>
			<path style="fill:#FFFFFF;" d="M74.056,344.867c-0.187,0-0.374-0.052-0.538-0.155l-23.281-14.738
				c-0.47-0.298-0.609-0.919-0.312-1.389c0.297-0.471,0.918-0.608,1.388-0.313l22.743,14.397l22.743-14.397
				c0.47-0.296,1.091-0.158,1.388,0.313c0.297,0.47,0.158,1.091-0.312,1.389l-23.281,14.738
				C74.43,344.815,74.243,344.867,74.056,344.867z"/>
		</g>
		<g>
			<g>
				<path style="fill:#F0F0F0;" d="M40.843,156.284h35.57c4.083,0,7.423,3.34,7.423,7.423v21.302v6.908l-6.908-6.908H40.843
					c-4.083,0-7.423-3.34-7.423-7.423v-13.878C33.419,159.625,36.76,156.284,40.843,156.284z"/>
				<path style="fill:#FFFFFF;" d="M42.08,166.457h33.611c0.68,0,1.237-0.557,1.237-1.237l0,0c0-0.68-0.557-1.237-1.237-1.237H42.08
					c-0.68,0-1.237,0.557-1.237,1.237l0,0C40.843,165.9,41.399,166.457,42.08,166.457z"/>
				<path style="fill:#FFFFFF;" d="M42.08,172.156h33.611c0.68,0,1.237-0.557,1.237-1.237l0,0c0-0.68-0.557-1.237-1.237-1.237H42.08
					c-0.68,0-1.237,0.557-1.237,1.237l0,0C40.843,171.599,41.399,172.156,42.08,172.156z"/>
				<path style="fill:#FFFFFF;" d="M53.524,177.855h22.167c0.68,0,1.237-0.557,1.237-1.237l0,0c0-0.681-0.557-1.237-1.237-1.237
					H53.524c-0.681,0-1.237,0.557-1.237,1.237l0,0C52.287,177.298,52.843,177.855,53.524,177.855z"/>
			</g>
		</g>
		<g>
			<path style="fill:#F5F5F5;" d="M434.683,73.37h-40.636c-4.665,0-8.481,3.816-8.481,8.481v17.838v7.892l7.892-7.892h41.225
				c4.664,0,8.481-3.816,8.481-8.481v-9.357C443.164,77.187,439.348,73.37,434.683,73.37z"/>
			<path style="fill:#E6E6E6;" d="M433.27,84.992h-38.399c-0.777,0-1.413-0.636-1.413-1.413l0,0c0-0.777,0.636-1.413,1.413-1.413
				h38.399c0.777,0,1.413,0.636,1.413,1.413l0,0C434.683,84.356,434.047,84.992,433.27,84.992z"/>
			<path style="fill:#E6E6E6;" d="M420.195,91.516h-25.324c-0.777,0-1.413-0.636-1.413-1.413l0,0c0-0.777,0.636-1.413,1.413-1.413
				h25.324c0.777,0,1.413,0.636,1.413,1.413l0,0C421.609,90.88,420.973,91.516,420.195,91.516z"/>
		</g>
	</g>
</g>
<g id="Background_Simple" style="display:none;">
	<g style="display:inline;">
		<path style="fill:#407BFF;" d="M241.657,130.254c42.349-24.068,76.845-59.607,127.883-48.9
			c40.241,8.442,64.453,46.482,59.88,88.059c-5.337,48.53-46.349,75.769-74.329,112.939c-24.924,33.11-52.477,82.801-99.953,77.824
			c-40.367-4.231-51.751-55.496-96.943-58.62c-46.732-3.231-79.161,12.143-102.64-41.257C38.1,220.601,49.033,169.129,97.09,150.488
			C144.764,131.996,192.88,157.97,241.657,130.254z"/>
		<path style="opacity:0.9;fill:#FFFFFF;" d="M241.657,130.254c42.349-24.068,76.845-59.607,127.883-48.9
			c40.241,8.442,64.453,46.482,59.88,88.059c-5.337,48.53-46.349,75.769-74.329,112.939c-24.924,33.11-52.477,82.801-99.953,77.824
			c-40.367-4.231-51.751-55.496-96.943-58.62c-46.732-3.231-79.161,12.143-102.64-41.257C38.1,220.601,49.033,169.129,97.09,150.488
			C144.764,131.996,192.88,157.97,241.657,130.254z"/>
	</g>
</g>
<g id="Shadow_1_">
	<ellipse id="_x3C_Path_x3E__298_" style="fill:#F5F5F5;" cx="250" cy="416.238" rx="193.889" ry="11.323"/>
</g>
<g id="Character_1">
	<g>
		<path style="fill:#FFFFFF;" d="M200.05,267.44c0,30.06-18.15,55.89-44.1,67.11c-5.23,2.26-10.78,3.93-16.56,4.92
			c-4.04,0.69-8.19,1.05-12.42,1.05c-1.43,0-2.85-0.04-4.26-0.13c-4.99-0.28-9.84-1.06-14.5-2.3
			c-31.27-8.28-54.32-36.78-54.32-70.65c0-40.36,32.72-73.08,73.08-73.08S200.05,227.08,200.05,267.44z"/>
		<g>
			<path style="fill:#263238;" d="M148.13,229.83h0.03c-8.3-2.99,1.87-17.84-13.07-24.62c-15.29-6.95-30.76,2.38-27.86,10.23
				c-5.03,1.43-6.35,13.57-0.22,19.24c-1.97,2.55-3.15,5.73-3.15,9.19c0,7.72,5.81,14.07,13.28,14.93c0.01,0,0.01,0,0.02,0
				c0.05,0.02,0.1,0.02,0.14,0.02h0.01c0.52,0.06,1.04,0.09,1.58,0.09c0.86,0,1.7-0.07,2.52-0.22h0.01c0.8-0.13,1.59-0.33,2.34-0.6
				h0.01c2.83-0.97,5.27-2.77,7.05-5.09c1.73,2.25,4.09,4,6.81,4.99c0,0,0,0,0.01,0.01c0.19,0.06,0.37,0.13,0.57,0.18
				c0.66,0.22,1.35,0.39,2.05,0.5c0.81,0.14,1.63,0.21,2.48,0.21c1.2,0,2.37-0.14,3.49-0.41c6.62-1.57,11.55-7.52,11.55-14.63
				C157.78,237.45,153.77,232,148.13,229.83z"/>
			<path style="fill:#FF8B7B;" d="M114.07,272.59c-0.03-0.67-0.06-1.23-0.13-2.06c-0.26-2.91-2.78-5.13-5.72-4.98
				c-2.73,0.14-4.89,2.25-5.17,4.87c-0.01,0.01-0.01,0.02,0,0.03c-0.04,0.28-0.04,0.56-0.03,0.84l0.01,0.23
				c0.02,0.32,0.04,0.91,0.04,1.39l0.01,1.56c0,1.04-0.04,2.11-0.1,3.17c-0.09,1.68-0.23,3.38-0.43,5.06
				c-0.05,0.44-0.1,0.89-0.16,1.33c-0.56,4.26-1.42,8.48-2.64,12.6c-0.29,1.03-0.66,2.04-0.97,3.07c-0.33,1.02-0.74,2.01-1.11,3.02
				l-0.42,1.15c-0.1,0.25-0.2,0.43-0.2,0.49c-0.16-0.04-0.34-0.11-0.53-0.21c-0.7-0.31-1.5-0.83-2.29-1.42
				c-1.58-1.17-3.24-2.71-4.71-4.17l-0.13-0.12c-0.06-0.05-0.1-0.09-0.16-0.15h-0.01c-0.78-0.64-1.87-0.84-2.86-0.41
				c-1.38,0.61-2.02,2.23-1.41,3.62c0.47,1.06,0.96,1.98,1.51,2.93c0.08,0.15,0.17,0.3,0.26,0.45c0.63,1.09,1.37,2.14,2.19,3.18
				c0.84,1.03,1.78,2.05,3,3.02c1.22,0.92,2.73,1.93,5.09,2.29c1.18,0.15,2.57,0.04,3.83-0.44c1.26-0.46,2.3-1.21,3.09-1.97
				c0.8-0.76,1.36-1.54,1.83-2.29c0.23-0.37,0.44-0.74,0.62-1.1c0.1-0.19,0.17-0.35,0.23-0.49c0.01-0.01,0-0.01,0-0.01
				c0.06-0.13,0.12-0.24,0.18-0.38c1.06-2.23,2.02-4.5,2.84-6.82c0.18-0.5,0.35-1,0.52-1.51c0.09-0.26,0.18-0.53,0.26-0.8
				c1.23-3.77,2.15-7.63,2.77-11.54c0.02-0.15,0.05-0.29,0.07-0.44c0.05-0.34,0.1-0.68,0.15-1.02v-0.07
				c0.03-0.16,0.06-0.34,0.08-0.51v-0.03c0.26-1.9,0.44-3.81,0.53-5.73c0.02-0.35,0.04-0.71,0.05-1.06
				c0.04-0.89,0.06-1.78,0.06-2.67C114.12,273.86,114.1,273.23,114.07,272.59z"/>
			<path style="fill:#407BFF;" d="M108.169,260.59c8.05-3.724,13.356,12.288,11.903,25.41c-11.435,1.608-20.993-5.33-20.993-5.33
				S98.762,264.941,108.169,260.59z"/>
			<path style="fill:#407BFF;" d="M103.055,268.644c-0.11,7.965,1.05,24.138,6.386,56.95h43.507
				c-0.663-16.076-0.741-26.557,5.583-55.545c1.15-5.271-2.465-10.39-7.816-11.077c-2.632-0.338-5.568-0.634-8.53-0.777
				c-7.321-0.353-13.32-0.587-19.756,0.001c-4.033,0.368-8.323,1.006-11.714,1.574C106.357,260.501,103.116,264.225,103.055,268.644
				z"/>
			<path style="opacity:0.2;" d="M149.757,274.845l7.319,2.092c-1.004,4.949-1.798,9.315-2.416,13.237
				C149.261,288.437,144.265,278.833,149.757,274.845z"/>
			<path style="fill:#FF8B7B;" d="M86.15,291.54l-3.887-4.473c-1.043-1.2-2.987-0.864-3.566,0.616l-2.256,5.764
				c-0.273,0.698-0.157,1.488,0.306,2.077l3.92,4.993c0,0,3.201,3.949,7.643,4.264l1.711-4.739L86.15,291.54z"/>
			<g>
				<path style="fill:#FFFFFF;" d="M118.687,275.141l1.035,1.596l1.646-0.954c8.731-5.062,14.694-10.624,17.471-13.489
					c1.108-1.143,1.576-2.7,1.375-4.19c-6.443-0.295-11.938-0.441-17.784,0.093c-1.677,0.153-3.395,0.354-5.078,0.576
					c-0.102,0.12-0.209,0.235-0.299,0.366C115.7,261.106,113.149,266.605,118.687,275.141z"/>
			</g>
			<path style="fill:#FF8B7B;" d="M136.743,236.747c-0.981,5.669-1.867,15.509,1.128,20.541c0.691,1.161,0.472,2.643-0.469,3.613
				c-2.732,2.818-8.533,8.22-17.038,13.151c-4.812-7.417-2.903-11.978-1.663-13.781c0.355-0.517,0.874-0.908,1.471-1.099
				c6.299-2.014,5.974-7.068,4.677-11.803L136.743,236.747z"/>
			<path style="opacity:0.2;" d="M133.726,241.823l-8.872,5.54c0.322,1.162,0.579,2.342,0.687,3.492
				c2.061-0.046,7.025-2.147,8.408-5.605C134.477,243.931,133.971,242.477,133.726,241.823z"/>
			<path style="fill:#FF8B7B;" d="M137.671,219.369c2.647,10.297,3.987,14.599,0.564,21.431
				c-5.148,10.277-18.374,11.276-24.044,1.977c-5.103-8.37-8.574-23.803,0.009-31.018
				C122.656,204.65,135.025,209.072,137.671,219.369z"/>
			<path style="fill:#263238;" d="M130.25,215.324c1.75,7.25,9.205,11.214,9.205,11.214s3.223-5.63,1.009-11.214
				C138.25,209.74,130.25,215.324,130.25,215.324z"/>
			<path style="fill:#263238;" d="M135.505,220.287c-2.331,2.437-2.018,6.241-2.018,6.241s2.93-0.149,4.513-2.355
				C139.584,221.967,135.505,220.287,135.505,220.287z"/>
			<path style="fill:#263238;" d="M135.633,218.486c-2.842,1.814-3.441,5.584-3.441,5.584s2.881,0.55,4.943-1.217
				C139.196,221.086,135.633,218.486,135.633,218.486z"/>
			<path style="fill:#263238;" d="M109.697,215.49c-2.101,6.75,31.604,4.5,28.579-1c-3.025-5.5-10.858-8.333-15.9-7.833
				C117.333,207.157,111.31,210.74,109.697,215.49z"/>
			<path style="fill:#263238;" d="M110.949,213.715c-2.61,0.55-4.246,10.501-2.562,10.001
				C110.07,223.217,120.008,211.807,110.949,213.715z"/>
			<g>
				<path style="fill:#263238;" d="M141.3,325.59c0,0-0.1,0.69-0.28,1.96c-0.31,2.28-0.89,6.44-1.63,11.92
					c-4.04,0.69-8.19,1.05-12.42,1.05c-1.43,0-2.85-0.04-4.26-0.13c-4.99-0.28-9.84-1.06-14.5-2.3c0.46-4.79,0.82-8.46,1.03-10.54
					c0.13-1.27,0.2-1.96,0.2-1.96H141.3z"/>
				<path style="opacity:0.1;fill:#FFFFFF;" d="M141.3,325.59c0,0-0.1,0.69-0.28,1.96c-0.31,2.28-0.89,6.44-1.63,11.92
					c-4.04,0.69-8.19,1.05-12.42,1.05c-1.43,0-2.85-0.04-4.26-0.13c-4.99-0.28-9.84-1.06-14.5-2.3c0.46-4.79,0.82-8.46,1.03-10.54
					c0.13-1.27,0.2-1.96,0.2-1.96H141.3z"/>
			</g>
			<g>
				<path style="fill:#263238;" d="M153.8,327.55c0.87,2.14,1.57,4.48,2.15,7c-5.23,2.26-10.78,3.93-16.56,4.92
					c-4.04,0.69-8.19,1.05-12.42,1.05c-1.43,0-2.85-0.04-4.26-0.13c-0.73-5.91-1.27-10.43-1.55-12.84
					c-0.15-1.27-0.23-1.96-0.23-1.96h32.02C153.25,326.22,153.54,326.88,153.8,327.55z"/>
				<path style="opacity:0.1;fill:#FFFFFF;" d="M153.8,327.55c0.87,2.14,1.57,4.48,2.15,7c-5.23,2.26-10.78,3.93-16.56,4.92
					c-4.04,0.69-8.19,1.05-12.42,1.05c-1.43,0-2.85-0.04-4.26-0.13c-0.73-5.91-1.27-10.43-1.55-12.84
					c-0.15-1.27-0.23-1.96-0.23-1.96h32.02C153.25,326.22,153.54,326.88,153.8,327.55z"/>
			</g>
			<path style="fill:#263238;" d="M122.35,227.742c0.266,0.822,0.046,1.629-0.491,1.803c-0.537,0.174-1.189-0.352-1.455-1.174
				s-0.046-1.63,0.491-1.803C121.433,226.395,122.084,226.92,122.35,227.742z"/>
			<path style="fill:#263238;" d="M113.058,230.749c0.266,0.822,0.046,1.63-0.491,1.803c-0.537,0.174-1.189-0.352-1.455-1.174
				c-0.266-0.822-0.046-1.629,0.491-1.803C112.141,229.401,112.792,229.927,113.058,230.749z"/>
			<path style="fill:#263238;" d="M111.855,229.544l-2.159,0.07C109.697,229.613,111.209,230.828,111.855,229.544z"/>
			<path style="fill:#FF5652;" d="M116.317,231.075c0,0-0.25,3.991-1.233,6.195c1.413,0.662,3.108-0.398,3.108-0.398
				L116.317,231.075z"/>
			<path style="fill:#263238;" d="M124.048,238.304c-0.402,0.213-0.847,0.405-1.34,0.565c-0.133,0.043-0.276-0.03-0.32-0.164
				c-0.043-0.133,0.027-0.274,0.164-0.32c3.606-1.164,4.477-4.232,4.486-4.263c0.036-0.136,0.176-0.216,0.311-0.179
				c0.135,0.036,0.216,0.176,0.179,0.311C127.495,234.374,126.795,236.845,124.048,238.304z"/>
			<path style="fill:#FF8B7B;" d="M141.715,226.044c0.223,2.193-0.587,4.284-1.754,5.669c-1.755,2.084-4.161,0.883-4.953-1.574
				c-0.713-2.212-0.659-5.961,1.719-7.149C139.069,221.82,141.46,223.537,141.715,226.044z"/>
			<path style="fill:#263238;" d="M124.649,222.781c-0.133,0.02-0.273-0.012-0.388-0.1c-1.789-1.386-3.56-0.795-3.58-0.788
				c-0.262,0.088-0.553-0.048-0.646-0.314c-0.092-0.265,0.048-0.553,0.313-0.646c0.093-0.031,2.314-0.776,4.534,0.945
				c0.221,0.171,0.262,0.49,0.09,0.712C124.89,222.698,124.773,222.762,124.649,222.781z"/>
			<path style="fill:#263238;" d="M108.739,228.964c-0.114,0.053-0.248,0.065-0.377,0.021c-0.265-0.09-0.408-0.378-0.318-0.643
				c0.899-2.658,3.161-3.268,3.258-3.292c0.272-0.069,0.548,0.094,0.618,0.365c0.07,0.271-0.093,0.547-0.364,0.618
				c-0.089,0.023-1.836,0.521-2.551,2.635C108.959,228.804,108.86,228.908,108.739,228.964z"/>
			<path style="fill:#FF8B7B;" d="M162.53,284.14c-0.44-2.38-0.94-4.75-1.49-7.09c-0.19-0.82-0.39-1.63-0.59-2.44
				c-0.55-2.13-1.09-4.21-1.71-6.32v-0.01c-0.3-1.02-0.62-2.04-0.97-3.09c-0.91-2.77-3.87-4.36-6.7-3.55
				c-2.91,0.83-4.6,3.86-3.76,6.77l0.02,0.08c0.62,2.2,1.28,4.49,1.89,6.79c0.18,0.68,0.36,1.37,0.53,2.05
				c0.46,1.8,0.9,3.61,1.33,5.41c0.28,1.18,0.55,2.36,0.81,3.54c0.2,0.92,0.39,1.83,0.57,2.75c0.42,2.07,0.8,4.13,1.13,6.19
				c0.06,0.42,0.12,0.85,0.18,1.27c0.21,1.55,0.4,3.09,0.54,4.61c-0.34-0.04-0.69-0.1-1.04-0.17c-0.15-0.03-0.3-0.06-0.45-0.09
				c-2.47-0.56-5.15-1.44-7.78-2.43c-2.64-0.98-5.3-2.08-7.95-3.21c-2.54-1.06-5.08-2.22-7.57-3.34c-0.12-0.05-0.24-0.11-0.36-0.16
				l-0.05-0.02c-1.14-0.51-2.52-0.19-3.3,0.86c-0.9,1.2-0.65,2.91,0.56,3.81c0.32,0.24,0.64,0.48,0.97,0.7c0.01,0,0.01,0,0.01,0
				c2.12,1.55,4.28,2.96,6.47,4.37c2.55,1.59,5.15,3.1,7.87,4.52c2.73,1.38,5.51,2.72,8.7,3.74c0.75,0.23,1.5,0.45,2.31,0.63
				c0.95,0.22,1.99,0.39,3.19,0.45c1.13,0.02,2.44,0.03,4.2-0.71c0.86-0.38,1.83-0.98,2.61-1.9c0.78-0.89,1.28-1.96,1.55-2.92
				c0.08-0.33,0.14-0.69,0.15-1.04V304C164.55,297.1,163.7,290.56,162.53,284.14z"/>
			<path style="fill:#407BFF;" d="M148.665,258.726c8.815,0.982,11.23,3.69,15.754,16.092c-9.533,6.517-18.774,10.554-18.774,10.554
				S138.365,257.578,148.665,258.726z"/>
			<g>
				<path style="fill:#263238;" d="M153.599,323.041l1.113,3.894c0.152,0.302-0.206,0.61-0.709,0.61h-44.777
					c-0.392,0-0.717-0.192-0.742-0.439l-0.392-3.894c-0.027-0.27,0.313-0.498,0.742-0.498h44.057
					C153.215,322.715,153.501,322.847,153.599,323.041z"/>
			</g>
			<g>
				<path style="fill:#263238;" d="M147.682,327.967h1.18c0.235,0,0.414-0.121,0.398-0.269l-0.553-5.06
					c-0.016-0.148-0.222-0.269-0.457-0.269h-1.18c-0.235,0-0.414,0.121-0.398,0.269l0.553,5.06
					C147.242,327.846,147.447,327.967,147.682,327.967z"/>
				<path style="opacity:0.1;fill:#FFFFFF;" d="M147.682,327.967h1.18c0.235,0,0.414-0.121,0.398-0.269l-0.553-5.06
					c-0.016-0.148-0.222-0.269-0.457-0.269h-1.18c-0.235,0-0.414,0.121-0.398,0.269l0.553,5.06
					C147.242,327.846,147.447,327.967,147.682,327.967z"/>
			</g>
			<g>
				<path style="fill:#263238;" d="M112.542,327.967h1.18c0.235,0,0.414-0.121,0.398-0.269l-0.553-5.06
					c-0.016-0.148-0.222-0.269-0.457-0.269h-1.18c-0.235,0-0.414,0.121-0.398,0.269l0.553,5.06
					C112.102,327.846,112.307,327.967,112.542,327.967z"/>
				<path style="opacity:0.1;fill:#FFFFFF;" d="M112.542,327.967h1.18c0.235,0,0.414-0.121,0.398-0.269l-0.553-5.06
					c-0.016-0.148-0.222-0.269-0.457-0.269h-1.18c-0.235,0-0.414,0.121-0.398,0.269l0.553,5.06
					C112.102,327.846,112.307,327.967,112.542,327.967z"/>
			</g>
			<g>
				<path style="fill:#263238;" d="M130.112,327.967h1.18c0.235,0,0.414-0.121,0.398-0.269l-0.553-5.06
					c-0.016-0.148-0.222-0.269-0.457-0.269h-1.18c-0.235,0-0.414,0.121-0.398,0.269l0.553,5.06
					C129.672,327.846,129.877,327.967,130.112,327.967z"/>
				<path style="opacity:0.1;fill:#FFFFFF;" d="M130.112,327.967h1.18c0.235,0,0.414-0.121,0.398-0.269l-0.553-5.06
					c-0.016-0.148-0.222-0.269-0.457-0.269h-1.18c-0.235,0-0.414,0.121-0.398,0.269l0.553,5.06
					C129.672,327.846,129.877,327.967,130.112,327.967z"/>
			</g>
			<path d="M120.759,298.594h-8.703c-0.854,0-1.596-0.586-1.795-1.416l-4.371-18.243c-0.222-0.928,0.438-1.778,1.379-1.778h8.687
				c0.863,0,1.614,0.592,1.815,1.432l4.367,18.228C122.36,297.743,121.701,298.594,120.759,298.594z"/>
			<path style="fill:#263238;" d="M119.729,298.594h-8.687c-0.863,0-1.614-0.592-1.815-1.432l-4.367-18.227
				c-0.222-0.928,0.438-1.778,1.379-1.778h8.687c0.863,0,1.614,0.592,1.815,1.432l4.367,18.228
				C121.33,297.743,120.67,298.594,119.729,298.594z"/>
			<path style="fill:#FF8B7B;" d="M130.061,296.59l-0.258-4.415l-6.232-7.089c-0.913-1.038-2.147-1.741-3.506-1.996l-4.007-0.752
				c-1.411-0.265-2.706,0.843-2.662,2.278l0.172,5.672c0.027,0.885,0.57,1.671,1.388,2.009l7.049,2.914l0-0.001
				C123.905,296.316,127.307,297.841,130.061,296.59z"/>
			<path style="fill:#263238;" d="M121.148,226.537l-2.159,0.07C118.989,226.607,120.501,227.822,121.148,226.537z"/>
		</g>
		<path style="fill:#407BFF;" d="M126.968,341.016c-40.572,0-73.579-33.007-73.579-73.578s33.007-73.579,73.579-73.579
			c40.571,0,73.578,33.008,73.578,73.579S167.539,341.016,126.968,341.016z M126.968,194.858c-40.02,0-72.579,32.559-72.579,72.579
			c0,40.02,32.559,72.578,72.579,72.578c40.02,0,72.578-32.559,72.578-72.578C199.546,227.417,166.988,194.858,126.968,194.858z"/>
	</g>
</g>
<g id="Character_2">
	<g>
		<path style="fill:#FFFFFF;" d="M446.11,196.34c0,34.57-24.01,63.54-56.27,71.13c-5.39,1.28-11.02,1.95-16.81,1.95
			c-12.28,0-23.85-3.03-34.01-8.38c-23.23-12.24-39.07-36.62-39.07-64.7c0-40.36,32.72-73.08,73.08-73.08
			S446.11,155.98,446.11,196.34z"/>
		<g>
			<path style="fill:#263238;" d="M370.416,143.919c-8.972-4.694-14.25,6.972-12.083,15.139c2.167,8.167,7.833,13.361,7.833,13.361
				s8.559-12.351,8.593-18.15C374.802,147.085,373.763,145.67,370.416,143.919z"/>
			<path style="fill:#263238;" d="M365.231,169.114c-0.281-1.781-5.501-0.641-4.217,1.285
				C362.298,172.326,365.363,169.948,365.231,169.114z"/>
			<path style="fill:#263238;" d="M364.796,169.37c-1.653-0.718-3.492,4.299-1.177,4.249
				C365.933,173.568,365.57,169.706,364.796,169.37z"/>
			<path style="fill:#263238;" d="M367.931,145.947c-4.179-4.138,5.545-7.694,15.015-6.028c9.47,1.667,12.544,9.972,9.207,14.042
				C389.497,157.2,373.065,151.03,367.931,145.947z"/>
			<path style="fill:#263238;" d="M367.543,143.462c1.493-1.011-1.756-5.253-2.954-3.273
				C363.39,142.17,366.844,143.935,367.543,143.462z"/>
			<path style="fill:#263238;" d="M395.4,223.14c-0.03,0.93-0.06,1.89-0.1,2.87c-0.03,0.53-0.05,1.08-0.08,1.63
				c-0.08,1.43-0.17,2.9-0.28,4.41c-0.04,0.64-0.09,1.28-0.15,1.93c0,0.09-0.01,0.18-0.02,0.27c-0.05,0.66-0.1,1.33-0.17,2.01
				c-0.22,2.45-0.49,5-0.81,7.64c-0.87,7.16-2.15,15.02-3.95,23.57c-5.39,1.28-11.02,1.95-16.81,1.95
				c-12.28,0-23.85-3.03-34.01-8.38c0.57-4.77,1.32-10.98,1.94-18.16c0.34-3.9,0.65-8.1,0.87-12.5c0.01-0.33,0.03-0.67,0.04-1
				c0.05-1.07,0.1-2.15,0.14-3.24c0.02-0.67,0.04-1.34,0.06-2.02c0.03-0.91,0.05-1.83,0.07-2.76l0.03-2.28v-0.96
				c0.01-0.51,0.01-1.03,0.01-1.55c0-1.75-0.02-3.51-0.06-5.29v-0.09c-0.1-4.6-0.34-9.29-0.76-14.02c-0.02-0.28-0.04-0.57-0.07-0.85
				c-0.22-2.38,0.55-4.63,1.96-6.34c1.48-1.81,3.69-3.02,6.21-3.18c0.05,0,0.11,0,0.16-0.01c1.15-0.07,2.38-0.12,3.62-0.16
				c1.13-0.03,2.28-0.05,3.43-0.04h0.65c0.61,0.01,1.26,0.02,1.92,0.04c0.7,0.02,1.43,0.04,2.17,0.06c0.62,0.01,1.24,0.03,1.87,0.05
				c3.56,0.13,7.35,0.33,10.68,0.63c0.22,0.02,0.44,0.04,0.65,0.06c1.28,0.12,2.47,0.26,3.55,0.41c0.21,0.03,0.42,0.06,0.62,0.09
				c0.87,0.13,1.73,0.28,2.57,0.45c0.14,0.02,0.28,0.05,0.41,0.08c1.38,0.27,2.7,0.57,3.93,0.86c4.31,1.05,7.44,2.12,7.44,2.12
				s0.01,0.02,0.02,0.06c0.11,0.46,0.86,3.53,1.48,9.1c0.42,3.81,0.79,8.8,0.85,14.91c0,0,0,0,0,0.01
				C395.51,217.89,395.49,220.43,395.4,223.14z"/>
			<path style="fill:#FFC3BD;" d="M411.191,243.287c-0.09-1.33-0.27-2.205-0.467-3.05c-0.42-1.759-0.78-2.732-1.153-4.007
				l-2.216-7.335l-4.429-14.732c-1.482-4.909-3.012-9.832-4.593-14.687l-13.712,4.162c1.431,5.017,2.977,9.946,4.62,14.874
				c1.634,4.925,3.34,9.83,5.143,14.715c0.102,0.28,0.208,0.558,0.311,0.838l-4.638,4.133c1.365,2.436,2.864,4.631,4.604,6.842
				c0.895,1.082,1.797,2.188,2.955,3.272c0.581,0.548,1.207,1.107,2.064,1.708c0.451,0.302,0.943,0.626,1.709,0.956
				c0.192,0.081,0.387,0.161,0.654,0.245l0.374,0.115l0.478,0.111c0.614,0.124,1.56,0.255,2.83,0.002
				c0.34-0.074,0.674-0.169,1.002-0.289c0.369-0.144,0.733-0.322,1.077-0.526c0.66-0.389,1.358-1.012,1.764-1.54
				c0.955-1.223,1.192-2.12,1.41-2.92C411.293,244.708,411.21,243.992,411.191,243.287z"/>
			<path style="fill:#263238;" d="M383.486,196.79c-3.704,8.245,7.992,31.879,7.992,31.879l15.883-4.375
				c0,0,0.583-14.072-5.32-24.167C395.98,189.763,387.551,187.742,383.486,196.79z"/>
			<path style="fill:#407BFF;" d="M384.277,190.54c-0.413-1.082-1.378-1.858-2.514-2.082c-0.136-0.027-0.273-0.053-0.411-0.08
				c-0.843-0.167-1.703-0.313-2.576-0.451c-5.83-0.897-15.628-1.261-22.103-1.34c-0.002,0.005-0.001,0.003-0.003,0.008l2.043,2.448
				c2.737,3.259,7.832,9.325,17.352,10.521c0.719,0.09,1.404,0.136,2.036,0.136c0.001,0,0,0,0.001,0
				c3.702,0,5.372-1.574,6.121-2.895C385.304,194.897,385.046,192.551,384.277,190.54z"/>
			<path style="opacity:0.2;" d="M350.916,207.585L342.121,211c0.003,0.098,0.008,0.18-0.005,0.276
				c0.112,5.106,0.063,10.092-0.121,14.864C351.166,222.335,351.32,210.926,350.916,207.585z"/>
			<path style="fill:#FFC3BD;" d="M365.128,173.594c0.346,4.961-0.534,10.239-4.287,13.655c-0.319,0.29-0.372,0.773-0.092,1.101
				c3.351,3.915,7.807,8.255,15.566,9.23c7.944,0.998,7.273-4.439,5.483-7.645c-0.091-0.164-0.248-0.284-0.425-0.347
				c-6.435-2.294-5.711-6.733-4.958-11.61c0.159-1.031-0.36-2.048-1.288-2.525l-7.196-3.698
				C366.598,171.069,365.024,172.098,365.128,173.594z"/>
			<path style="opacity:0.2;" d="M376.373,178.259l-7.809-0.281c0.12,0.363,0.271,0.731,0.425,1.083
				c1.062,2.56,4.036,4.621,7.219,5.719C375.678,182.848,376.018,180.601,376.373,178.259z"/>
			<path style="fill:#FFC3BD;" d="M367.009,154.745c-2.663,8.997-4.68,14.127-1.879,20.262c4.212,9.228,16.542,9.153,21.839,1.133
				c4.769-7.218,8.323-20.718,0.984-27.356C380.723,142.243,369.672,145.748,367.009,154.745z"/>
			<path style="fill:#263238;" d="M364.854,163.393c6.365,3.392,14.973-18.989,5.785-18.991S361.873,161.804,364.854,163.393z"/>
			<path style="fill:#FFC3BD;" d="M360.251,159.522c-0.086,2.528,1.003,4.861,2.447,6.357c2.171,2.251,4.031,0.554,4.748-2.321
				c0.646-2.588,1.097-6.741-1.718-7.918C362.955,154.48,360.35,156.631,360.251,159.522z"/>
			<path style="fill:#263238;" d="M379.012,161.653c-0.261,0.716-0.093,1.436,0.376,1.606c0.468,0.171,1.06-0.272,1.32-0.989
				c0.261-0.717,0.093-1.436-0.376-1.606C379.864,160.493,379.272,160.936,379.012,161.653z"/>
			<path style="fill:#263238;" d="M387.845,165.11c-0.261,0.716-0.093,1.436,0.376,1.606c0.468,0.171,1.06-0.272,1.32-0.989
				c0.261-0.717,0.093-1.436-0.376-1.606C388.697,163.951,388.105,164.394,387.845,165.11z"/>
			<path style="fill:#ED847E;" d="M384.856,164.432c0,0,0.124,4.727,1.192,7.374c-1.698,0.722-3.657-0.604-3.657-0.604
				L384.856,164.432z"/>
			<path style="fill:#263238;" d="M380.447,173.213c-2.71-1.106-3.507-3.393-3.543-3.5c-0.039-0.117,0.024-0.244,0.141-0.283
				c0.117-0.039,0.244,0.023,0.284,0.14c0.009,0.027,0.945,2.684,4.175,3.522c0.12,0.032,0.192,0.153,0.161,0.273
				c-0.031,0.12-0.153,0.192-0.273,0.161C381.053,173.438,380.739,173.333,380.447,173.213z"/>
			<path style="fill:#263238;" d="M378.649,158.188c-0.066-0.035-0.124-0.086-0.168-0.153c-0.134-0.208-0.075-0.485,0.133-0.619
				c2.08-1.345,3.979-0.525,4.058-0.49c0.226,0.101,0.327,0.365,0.227,0.591c-0.1,0.225-0.364,0.327-0.589,0.228l0,0
				c-0.062-0.027-1.549-0.651-3.209,0.423C378.96,158.258,378.787,158.26,378.649,158.188z"/>
			<path style="fill:#263238;" d="M393.154,163.627c-0.128-0.067-0.222-0.196-0.238-0.351c-0.203-1.966-1.621-2.734-1.681-2.766
				c-0.218-0.115-0.303-0.385-0.19-0.603s0.382-0.305,0.601-0.192c0.078,0.043,1.906,1.006,2.161,3.47
				c0.025,0.246-0.153,0.466-0.399,0.492C393.317,163.685,393.229,163.667,393.154,163.627z"/>
			<g>
				<path style="fill:#FFC3BD;" d="M372.596,218.881c-3.198,1.375-6.442,2.845-9.695,4.153c-3.236,1.361-6.482,2.665-9.71,3.869
					c-3.228,1.181-6.458,2.314-9.546,3.061c-0.689,0.173-1.376,0.325-2.036,0.45c0.273-1.044,0.575-2.091,0.914-3.144
					c0.967-3.02,2.259-6.026,3.648-9.016c1.429-2.979,2.99-5.938,4.676-8.841c0.828-1.46,1.691-2.904,2.581-4.324l1.352-2.107
					c0.43-0.678,0.929-1.437,1.299-1.982l-11.597-8.419c-0.668,0.907-1.169,1.626-1.725,2.434c-0.532,0.793-1.044,1.59-1.549,2.391
					c-1.009,1.601-1.98,3.219-2.917,4.861c-1.843,3.3-3.539,6.701-5.027,10.236c-1.498,3.534-2.771,7.207-3.757,11.054
					c-0.505,1.917-0.885,3.895-1.171,5.919c-0.076,0.503-0.143,1.01-0.192,1.527l-0.081,0.77l-0.04,0.385l-0.046,0.679
					c-0.058,0.883-0.004,2.026,0.292,3.259c0.317,1.282,1.016,2.75,2.089,3.923c1.084,1.203,2.354,1.913,3.457,2.354
					c1.136,0.446,2.043,0.575,2.917,0.683c1.677,0.153,2.968,0.009,4.168-0.166c2.371-0.376,4.311-0.994,6.209-1.645
					c3.73-1.372,7.115-2.952,10.404-4.677c6.577-3.431,12.681-7.293,18.66-11.557L372.596,218.881z"/>
				<path style="fill:#263238;" d="M347.872,187.22c-8.962,1.18-16.206,27.469-16.206,27.469l18.083,5.896
					c0,0,2.731-5.612,8.29-15.887C364.095,193.507,358.728,185.791,347.872,187.22z"/>
				<path style="fill:#FFC3BD;" d="M383.26,214.065l-4.537-0.271c-0.805-0.048-1.597,0.22-2.208,0.746l-6.549,5.649l2.573,5.126
					c3.832,2.702,10.206-3.359,10.206-3.359l2.332-0.552c1.831-0.434,2.666-2.563,1.617-4.126l-1.358-2.024
					C384.868,214.555,384.1,214.115,383.26,214.065z"/>
			</g>
			<path style="fill:#FFFFFF;" d="M388.91,236.204l-7.675-1.173c-0.794-0.121-1.262-0.957-0.951-1.698l7.568-18.03
				c0.219-0.522,0.765-0.828,1.324-0.742l7.675,1.173c0.794,0.121,1.262,0.957,0.952,1.698l-7.568,18.03
				C390.015,235.984,389.469,236.29,388.91,236.204z"/>
			<path style="fill:#407BFF;" d="M389.945,236.346l-7.675-1.173c-0.794-0.121-1.262-0.957-0.952-1.698l7.568-18.03
				c0.219-0.522,0.765-0.828,1.324-0.742l7.675,1.173c0.794,0.121,1.262,0.957,0.952,1.698l-7.568,18.03
				C391.05,236.126,390.504,236.432,389.945,236.346z"/>
			<path style="fill:#FFC3BD;" d="M396.873,234.376l-7.929-9.602l-4.413,9.815c0,0,2.618,3.678,6.946,4.246L396.873,234.376z"/>
			<path style="fill:#FFC3BD;" d="M379.921,226.126l0.468,3.242c0.145,1.009,0.631,1.938,1.375,2.634l2.768,2.587l4.413-9.815
				l-6.139-1.335C381.17,223.084,379.682,224.47,379.921,226.126z"/>
			<path style="fill:#263238;" d="M381.165,150.039c-2.627,5.742,14.818,12.523,14.798,4.414
				C395.944,146.343,382.395,147.35,381.165,150.039z"/>
			<path style="fill:#263238;" d="M370.359,146.686c-2.265,6.848,29.422,10.538,27.866,1.482
				C396.669,139.113,371.419,143.48,370.359,146.686z"/>
			<path style="fill:#263238;" d="M379.802,148.649c2.629,5.741,19.163-3.03,13.013-8.316
				C386.664,135.048,378.571,145.961,379.802,148.649z"/>
		</g>
		<path style="fill:#407BFF;" d="M373.033,269.915c-40.571,0-73.579-33.008-73.579-73.579s33.008-73.578,73.579-73.578
			s73.578,33.007,73.578,73.578S413.604,269.915,373.033,269.915z M373.033,123.758c-40.021,0-72.579,32.559-72.579,72.578
			c0,40.02,32.559,72.579,72.579,72.579c40.02,0,72.578-32.559,72.578-72.579C445.611,156.316,413.052,123.758,373.033,123.758z"/>
	</g>
</g>
<g id="Messenger">
	<g>
		<path style="fill:#407BFF;" d="M180.252,133.472H179.2v-12.846c0-8.904,7.244-16.149,16.148-16.149v1.053
			c-8.324,0-15.096,6.773-15.096,15.097V133.472z"/>
		<rect x="179.2" y="141.407" style="fill:#407BFF;" width="1.053" height="8.333"/>
		<g>
			<path style="fill:#FFFFFF;" d="M304.652,352.144H195.348c-6.942,0-12.623-5.68-12.623-12.622V120.626
				c0-6.942,5.68-12.622,12.623-12.622h109.303c6.942,0,12.622,5.68,12.622,12.622v218.895
				C317.274,346.464,311.594,352.144,304.652,352.144z"/>
			<path style="fill:#407BFF;" d="M304.652,352.67H195.348c-7.25,0-13.148-5.898-13.148-13.148V120.626
				c0-7.25,5.898-13.148,13.148-13.148h109.304c7.25,0,13.148,5.898,13.148,13.148v218.896
				C317.8,346.772,311.902,352.67,304.652,352.67z M195.348,108.53c-6.67,0-12.096,5.426-12.096,12.096v218.896
				c0,6.67,5.426,12.096,12.096,12.096h109.304c6.67,0,12.096-5.426,12.096-12.096V120.626c0-6.67-5.426-12.096-12.096-12.096
				H195.348z"/>
		</g>
		<path style="fill:#407BFF;" d="M304.652,108.004H195.348c-6.942,0-12.622,5.68-12.622,12.622h134.548
			C317.274,113.684,311.594,108.004,304.652,108.004z"/>
		<path style="fill:#FFFFFF;" d="M203.359,114.315c0,2.115-1.715,3.83-3.83,3.83c-2.115,0-3.83-1.715-3.83-3.83
			c0-2.115,1.715-3.83,3.83-3.83C201.644,110.485,203.359,112.2,203.359,114.315z"/>
		<path style="fill:#FFFFFF;" d="M302.324,114.315c0,0.478-0.387,0.865-0.865,0.865c-0.478,0-0.865-0.387-0.865-0.865
			c0-0.478,0.387-0.865,0.865-0.865C301.937,113.45,302.324,113.837,302.324,114.315z"/>
		<path style="fill:#FFFFFF;" d="M302.324,117.425c0,0.478-0.387,0.865-0.865,0.865c-0.478,0-0.865-0.387-0.865-0.865
			c0-0.478,0.387-0.865,0.865-0.865C301.937,116.561,302.324,116.948,302.324,117.425z"/>
		<circle style="fill:#FFFFFF;" cx="301.459" cy="111.204" r="0.865"/>
		<path style="opacity:0.2;fill:#FFFFFF;" d="M234.263,116.121h-25.546c-0.993,0-1.806-0.813-1.806-1.806l0,0
			c0-0.993,0.813-1.806,1.806-1.806h25.546c0.993,0,1.806,0.813,1.806,1.806l0,0C236.069,115.308,235.256,116.121,234.263,116.121z"
			/>
		<path style="fill:#407BFF;" d="M304.84,167.706h-68.634c-2.515,0-4.554-2.039-4.554-4.554v-25.128
			c0-2.515,2.039-4.554,4.554-4.554h68.634c2.515,0,4.554,2.039,4.554,4.554v25.128C309.394,165.668,307.355,167.706,304.84,167.706
			z"/>
		<path style="fill:#E0E0E0;" d="M263.794,193.177H195.16c-2.515,0-4.554-2.039-4.554-4.554v-8.835c0-2.515,2.039-4.554,4.554-4.554
			h68.634c2.515,0,4.554,2.039,4.554,4.554v8.835C268.348,191.138,266.309,193.177,263.794,193.177z"/>
		<path style="fill:#E0E0E0;" d="M263.794,285.473H195.16c-2.515,0-4.554-2.039-4.554-4.554v-50.19c0-2.515,2.039-4.554,4.554-4.554
			h68.634c2.515,0,4.554,2.039,4.554,4.554v50.19C268.348,283.434,266.309,285.473,263.794,285.473z"/>
		<path style="fill:#407BFF;" d="M304.84,310.185h-27.453c-2.515,0-4.554-2.039-4.554-4.554v-8.835c0-2.515,2.039-4.554,4.554-4.554
			h27.453c2.515,0,4.554,2.039,4.554,4.554v8.835C309.394,308.146,307.355,310.185,304.84,310.185z"/>
		<path style="fill:#FFFFFF;" d="M293.42,300.047c0,1.274-1.033,2.307-2.307,2.307s-2.307-1.033-2.307-2.307
			c0-1.274,1.033-2.307,2.307-2.307S293.42,298.773,293.42,300.047z"/>
		<path style="fill:#FFFFFF;" d="M285.766,301.213c0,1.274-1.033,2.307-2.307,2.307c-1.274,0-2.307-1.033-2.307-2.307
			c0-1.274,1.033-2.307,2.307-2.307C284.733,298.907,285.766,299.94,285.766,301.213z"/>
		<path style="fill:#FFFFFF;" d="M301.075,302.38c0,1.274-1.033,2.307-2.307,2.307c-1.274,0-2.307-1.033-2.307-2.307
			s1.033-2.307,2.307-2.307C300.042,300.073,301.075,301.106,301.075,302.38z"/>
		<path style="fill:#407BFF;" d="M304.84,218.647h-68.634c-2.515,0-4.554-2.039-4.554-4.554v-8.835c0-2.515,2.039-4.554,4.554-4.554
			h68.634c2.515,0,4.554,2.039,4.554,4.554v8.835C309.394,216.609,307.355,218.647,304.84,218.647z"/>
		<circle style="fill:#407BFF;" cx="194.776" cy="340.094" r="4.17"/>
		<circle style="fill:#E0E0E0;" cx="207.384" cy="340.094" r="4.17"/>
		<circle style="fill:#EBEBEB;" cx="219.992" cy="340.094" r="4.17"/>
		<path style="fill:#EBEBEB;" d="M305.224,344.264h-34.101c-2.293,0-4.17-1.876-4.17-4.17l0,0c0-2.293,1.876-4.17,4.17-4.17h34.101
			c2.293,0,4.17,1.876,4.17,4.17l0,0C309.394,342.387,307.518,344.264,305.224,344.264z"/>
		<rect x="182.726" y="322.504" style="fill:#407BFF;" width="134.548" height="1.053"/>
	</g>
</g>
</svg>
